<svg xmlns="http://www.w3.org/2000/svg" width="16" height="16"><path fill="#7D7D7D" d="M9 1v2H4V1h5m1-1H3v4h7V0z"/><path fill="#D1D1D1" d="M4 2h5v1H4zM8 1h1v1H8z"/><path fill="#7D7D7D" d="M8.586 6l-.293.293L8 6.586V8H4V6h4.586M10 5H3v4h6V7l1-1V5z"/><path fill="#D1D1D1" d="M4 7h5v1H4zM8 6h1v1H8z"/><g><path fill="#7D7D7D" d="M9 11v2H4v-2h5m-3 0v-1H3v4h2.722L6 13.444h4V10l-4 1z"/><path fill="#D1D1D1" d="M4 12h5v1H4zM8 11h1v1H8z"/></g><g fill="#7D7D7D"><path d="M2 1h1v1H2zM0 6h3v1H0zM2 11h1v1H2z"/><path d="M1 1h1v10.942H1z"/></g><path fill="#7D7D7D" d="M16 10h-3V7h-3v3H7v3h3v3h3v-3h3z"/></svg>