<svg xmlns="http://www.w3.org/2000/svg" width="16" height="16"><path fill="#7D7D7D" d="M11.006 10l.064-.065a3.061 3.061 0 0 1-.562.065c-.676 0-1.303-.23-1.838-.613A4.974 4.974 0 0 0 10.009 6a4.977 4.977 0 0 0-1.338-3.387A3.146 3.146 0 0 1 10.508 2c1.924 0 3.49 1.794 3.49 4 0 1.2-.473 2.266-1.206 3h1.288a5.329 5.329 0 0 0 .918-3c0-2.762-2.01-5-4.49-5-.972 0-1.865.352-2.6.936A4.947 4.947 0 0 0 5.019 1 4.994 4.994 0 0 0 .03 6c0 2.761 2.233 5 4.989 5 1.08 0 2.072-.352 2.889-.936.735.584 1.628.936 2.6.936.171 0 .332-.035.498-.057V10zm-5.987 0A3.998 3.998 0 0 1 1.03 6a4 4 0 0 1 3.989-4 3.94 3.94 0 0 1 1.808.454 4.748 4.748 0 0 0 .301 6.927A3.937 3.937 0 0 1 5.019 10z"/><path fill="#7D7D7D" d="M12.004 10H14v6h-1.996z"/><path fill="#7D7D7D" d="M10.009 12h5.987v2h-5.987z"/></svg>