<svg xmlns="http://www.w3.org/2000/svg" width="16" height="16"><path fill="#7D7D7D" d="M16 10h-3V7h-3v3H7v3h3v3h3v-3h3zM3.073 4.445a.95.95 0 0 0-.248-.676c-.166-.176-.403-.206-.816-.34C1.416 3.261.91 2.917.594 2.646c-.317-.27-.475-.627-.475-1.074 0-.459.176-.836.528-1.13C.999.147 1.452 0 2.004 0c.576 0 1.04.17 1.391.512.352.339.522.75.511 1.231l-.009.024h-.833c0-.341-.093-.617-.28-.83s-.45-.319-.789-.319c-.322 0-.571.089-.746.266a.929.929 0 0 0-.263.68.81.81 0 0 0 .282.626c.188.17.307.244.74.383.568.164 1.192.471 1.488.757.296.285.444.655.444 1.109 0 .479-.175.858-.526 1.139-.35.281-.81.422-1.38.422-.555 0-1.041-.153-1.455-.463-.415-.308-.615-.742-.6-1.304l.008-.023H.82c0 .398.112.694.335.886.224.191.517.287.879.287.325 0 .579-.085.763-.255.184-.168.276-.397.276-.683zM10 3.805c0 .345-.027.652-.147.925-.12.272-.29.502-.509.688l-.71.4a2.699 2.699 0 0 1-.543.137c-.19.029-.387.045-.593.045-.762 0-1.367-.193-1.815-.58-.45-.385-.674-.924-.674-1.615V2.202c0-.688.226-1.227.677-1.618C6.136.195 6.741 0 7.498 0c.768 0 1.382.195 1.844.584.461.392.658.931.658 1.618v1.603zM9.009 2.19c0-.507-.145-.893-.406-1.155C8.343.772 7.974 1 7.498 1c-.469 0-.829-.228-1.08.035s-.409.649-.409 1.155v1.614c0 .512.16.902.412 1.166.251.265.61.03 1.077.03.48 0 .85.236 1.108-.028.259-.263.403-.652.403-1.167V2.19zM12 5.248L14.009 5v1h-3V0H12v5.248z"/><path opacity=".59" fill="#7D7D7D" d="M8.009 4h1v1h-1z"/><path opacity=".9" fill="#7D7D7D" d="M9.009 5h1v1h-1z"/><path opacity=".59" fill="#7D7D7D" d="M10.009 6h1v1h-1z"/><path opacity=".29" fill="#7D7D7D" d="M10.009 5h1v1h-1zM9.009 6h1v1h-1z"/></svg>