<svg xmlns="http://www.w3.org/2000/svg" width="16" height="16"><path fill="#E2E2E2" d="M1 .25h9V3H1z"/><path fill="#7D7D7D" d="M10 1v14H1V1h9m1-1H0v16h11V0z"/><path fill="#7D7D7D" d="M1 1h9v1H1z"/><path opacity=".33" fill="#7D7D7D" d="M3 9h1v6H3zM7 9h1v6H7zM3 2h1v3H3zM6 5h1v3H6zM7 2h1v3H7z"/><path fill="#7D7D7D" d="M7 4h7v1H7zM7 8h7v1H7zM4 4h1v5H4zM3 5h1v3H3zM2 6h1v1H2zM5 5h1v3H5zM14 4h1v5h-1z"/><path fill="#EEE" d="M10 5h1v3h-1z"/><path fill="#7D7D7D" d="M1 11h9v1H1z"/><path fill="#BCBCBC" d="M6 5h8v3H6z"/></svg>