<svg xmlns="http://www.w3.org/2000/svg" width="16" height="16"><path opacity=".61" fill="#7D7D7D" d="M11 5l-1-1V1h1zM11 4h3v1h-3z"/><path fill="#7D7D7D" d="M11 0H3v7h1V1h6.586L14 4.414V14H9.666l-.332 1H15V4z"/><path opacity=".71" fill="#7D7D7D" d="M5.432 15.998L.599 11.164.6 9.899l2.223-2.223 1.33-.088L9.566 13l-3 3-1.134-.002zm-4.033-5.164L6 15.434 8.434 13 3.845 8.41l-.668.045L1.4 10.231l-.001.603z"/><path fill="#BCBCBC" d="M5.793 10.55L3.38 12.964l-2.121-2.121 2.414-2.414z"/><path fill="#7D7D7D" d="M1 11h1v1H1zM2 12h1v1H2zM3 13h1v1H3zM5 15h1v1H5zM6 15h1v1H6zM7 14h1v1H7zM8 13h1v1H8zM8 12h1v1H8zM7 11h1v1H7zM6 10h1v1H6zM5 9h1v1H5zM4 8h1v1H4zM2 8h1v1H2zM1 9h1v1H1zM4 12h1v1H4z"/><path opacity=".63" fill="#7D7D7D" d="M1 10h1v1H1zM2 9h1v1H2zM3 8h1v1H3z"/><path fill="#7D7D7D" d="M5 11h1v1H5z"/></svg>