<svg xmlns="http://www.w3.org/2000/svg" width="16" height="16"><path fill="#7D7D7D" d="M15 4V3c0-1.1-.9-2-2-2H3c-1.1 0-2 .9-2 2v1c0 .599.821 1.133 1.134 1.5C1.821 5.867 1 6.401 1 7v1c0 .51.749.973 1 1.328-.351.358-1 .973-1 1.672v1c0 1.1.9 2 2 2h10c1.1 0 2-.9 2-2v-1c0-.621-.646-1.172-1.096-1.541C14.395 9.094 15 8.576 15 8V7c0-.622-.646-1.173-1.096-1.541C14.395 5.094 15 4.576 15 4zm-1.477 6c.552 0 .477.449.477 1v1c0 .553.075 1-.477 1H2.333C1.782 13 2 12.553 2 12v-1c0-.551-.218-1 .333-1h11.19zm0-4c.552 0 .477.448.477 1v1c0 .552.075 1-.477 1H2.333C1.782 9 2 8.552 2 8V7c0-.552-.218-1 .333-1h11.19zM2.333 5C1.782 5 2 4.552 2 4V3c0-.552-.218-1 .333-1h11.19c.552 0 .477.448.477 1v1c0 .552.075 1-.477 1H2.333z"/></svg>