<svg xmlns="http://www.w3.org/2000/svg" width="16" height="16"><path fill="#BCBCBC" d="M7 15.5a6.884 6.884 0 0 1-1.791-.291l-1.103-.367C3.79 14.736 3.5 14.334 3.5 14V5a.5.5 0 0 1 .5-.5h9a.5.5 0 0 1 .5.5v9c0 .334-.289.736-.607.842l-1.102.367A6.89 6.89 0 0 1 10 15.5H7z"/><path fill="#7D7D7D" d="M12 2h-1l-1-2H7L6 2H5C2 2 2 5 2 5h1v9c0 .55.427 1.143.949 1.316l1.103.367A7.394 7.394 0 0 0 7 16h3c.549 0 1.426-.143 1.947-.316l1.104-.367c.521-.174.949-.767.949-1.317V5h1s0-3-3-3zM7 1h3v1H7V1zm6 13c0 .12-.152.33-.266.367l-1.104.367A6.34 6.34 0 0 1 10 15H7a6.37 6.37 0 0 1-1.633-.266l-1.102-.367C4.151 14.33 4 14.12 4 14V5h9v9zM3.221 4c.24-.505.741-1 1.779-1h7c1.031 0 1.533.49 1.775 1H3.221z"/><path fill="#7D7D7D" d="M5 6h1v7H5zM8 6h1v7H8zM11 6h1v7h-1z"/></svg>