<svg xmlns="http://www.w3.org/2000/svg" width="16" height="16"><path fill="#7D7D7D" d="M11.5 0a4.5 4.5 0 1 0 0 9 4.5 4.5 0 0 0 0-9zm2.875 6.574l-.801.801L11.5 5.301 9.426 7.375l-.801-.801L10.699 4.5 8.625 2.426l.801-.801L11.5 3.699l2.074-2.074.801.801L12.301 4.5l2.074 2.074z"/><g fill="#7D7D7D"><path d="M7 9h1v4H7zM9 9H6V8h1zM11 13h-1V9l1 1zM11 12h1v1h-1zM11 10h1v1h-1zM3 9h2L4 8H3zM2 9h1v3H2zM4 13H3v-1h2z"/><path opacity=".25" d="M5 11h1v1H5zM2 12h1v1H2zM2 8h1v1H2z"/><path opacity=".15" d="M4 11h1v1H4z"/><path opacity=".25" d="M5 9h1v1H5z"/><path opacity=".15" d="M4 9h1v1H4z"/></g><path opacity=".5" fill="#7D7D7D" d="M13 10.074V14c0 .551-.448 1-1 1H2c-.552 0-1-.449-1-1V7a1 1 0 0 1 1-1h4.177a5.604 5.604 0 0 1-.158-1H2C.9 5 0 5.899 0 7v7c0 1.1.9 2 2 2h10c1.1 0 2-.9 2-2V9.719a5.65 5.65 0 0 1-1 .355z"/></svg>