<svg xmlns="http://www.w3.org/2000/svg" width="16" height="16"><path fill="#BCBCBC" stroke="#7D7D7D" stroke-width=".799992" stroke-miterlimit="10" d="M3 10l7.692-7.693 3 3L6 13z"/><g fill="#7D7D7D"><path d="M8 4h1v1H8zM10 2h1v1h-1zM9 3h1v1H9zM11 1h1v1h-1zM12 0h2v1h-2zM7 5h1v1H7zM6 6h1v1H6zM5 7h1v1H5zM4 8h1v1H4zM3 9h1v1H3zM3 10h1v1H3zM2 10h1v3H2zM2 13h1v1H2zM1 14h1v1H1z"/><path opacity=".6" d="M2 15h1l1-1H2zM1 14h1v-2l-1 1z"/></g><g fill="#7D7D7D"><path d="M13 5h1v1h-1zM12 6h1v1h-1zM14 4h1v1h-1zM14 1h1v1h-1zM15 2h1v2h-1zM11 7h1v1h-1zM10 8h1v1h-1zM9 9h1v1H9zM8 10h1v1H8zM7 11h1v1H7zM6 12h1v1H6zM5 12h1v1H5zM5 13h1v1H5zM3 13h2v1H3z"/></g><g fill="#7D7D7D"><path d="M11 4h1v1h-1zM11 3h1v1h-1zM12 4h1v1h-1zM10 5h1v1h-1zM9 6h1v1H9zM8 7h1v1H8zM7 8h1v1H7zM6 9h1v1H6zM5 10h1v1H5zM4 11h1v1H4z"/></g></svg>