<svg xmlns="http://www.w3.org/2000/svg" width="16" height="16"><path fill="#7D7D7D" d="M5 13c-2.757 0-5-2.243-5-5s2.243-5 5-5c1.251 0 2.438.459 3.339 1.293l.407.376-.416.367A3.944 3.944 0 0 0 7 8a3.98 3.98 0 0 0 1.333 2.967l.412.366-.406.374A4.896 4.896 0 0 1 5 13zm0-9C2.794 4 1 5.794 1 8s1.794 4 4 4c.82 0 1.604-.246 2.254-.7A4.981 4.981 0 0 1 6 8a4.96 4.96 0 0 1 1.252-3.301A3.92 3.92 0 0 0 5 4z"/><path fill="#7D7D7D" d="M15.5 8c0 2.479-2.01 4.5-4.5 4.5-1.15 0-2.21-.43-3-1.16.92-.819 1.5-2.01 1.5-3.34S8.92 5.47 8 4.66c.79-.73 1.85-1.16 3-1.16 2.49 0 4.5 2.01 4.5 4.5z" opacity=".7"/><path fill="#7D7D7D" d="M11 13a4.894 4.894 0 0 1-3.339-1.293l-.405-.374.412-.366A3.978 3.978 0 0 0 9 8c0-1.14-.485-2.221-1.33-2.964l-.417-.367.407-.376A4.9 4.9 0 0 1 11 3c2.757 0 5 2.243 5 5s-2.243 5-5 5zm-2.255-1.7c.651.454 1.435.7 2.255.7 2.206 0 4-1.794 4-4s-1.794-4-4-4c-.819 0-1.603.245-2.253.699a4.972 4.972 0 0 1-.002 6.601z"/><g><path fill="#7D7D7D" d="M9.5 8c0 1.33-.58 2.521-1.5 3.34-.92-.819-1.5-2.01-1.5-3.34S7.08 5.47 8 4.66c.92.81 1.5 2.01 1.5 3.34z" opacity=".7"/><path fill="#7D7D7D" d="M8 12.01l-.333-.297A4.978 4.978 0 0 1 6 8c0-1.427.608-2.781 1.67-3.715L8 3.994l.33.291A4.943 4.943 0 0 1 10 8c0 1.416-.607 2.77-1.667 3.713L8 12.01zm0-6.647a3.975 3.975 0 0 0 0 5.27 3.97 3.97 0 0 0 0-5.27z"/></g></svg>