<svg xmlns="http://www.w3.org/2000/svg" width="16" height="16"><g fill="#666"><path d="M5 9v-.033c-.16.02-.326.033-.5.033C3.027 9 2 8.209 2 7.5S3.027 6 4.5 6c.174 0 .34.013.5.033V6l2.284.295C6.645 5.691 5.641 5 4.5 5 2.567 5 1 6.119 1 7.5 1 8.88 2.567 10 4.5 10c1.141 0 2.145-.707 2.784-1.312L5 9zM11.5 5c-1.141 0-2.145.691-2.784 1.295L11 6v.033c.16-.02.326-.033.5-.033 1.473 0 2.5.791 2.5 1.5S12.973 9 11.5 9c-.174 0-.34-.013-.5-.033V9l-2.284-.312C9.355 9.293 10.359 10 11.5 10c1.933 0 3.5-1.12 3.5-2.5C15 6.119 13.433 5 11.5 5z"/></g><path fill="#666" d="M5 7h6v1H5z"/></svg>