<svg xmlns="http://www.w3.org/2000/svg" width="16" height="16"><path fill="#7D7D7D" d="M5 13c-2.757 0-5-2.243-5-5s2.243-5 5-5c1.252 0 2.438.459 3.34 1.293l.406.376-.416.366A3.944 3.944 0 0 0 7 8c0 1.131.486 2.212 1.332 2.967l.412.366-.404.374A4.899 4.899 0 0 1 5 13zm0-9C2.794 4 1 5.794 1 8s1.794 4 4 4c.82 0 1.604-.246 2.254-.7a4.976 4.976 0 0 1-.002-6.601A3.92 3.92 0 0 0 5 4z"/><path fill="#7D7D7D" d="M11 13a4.899 4.899 0 0 1-3.34-1.293l-.404-.374.412-.366A3.982 3.982 0 0 0 9 8c0-1.14-.484-2.221-1.33-2.965l-.416-.366.406-.376A4.9 4.9 0 0 1 11 3c2.757 0 5 2.243 5 5s-2.243 5-5 5zm-2.254-1.7c.65.454 1.434.7 2.254.7 2.205 0 4-1.794 4-4s-1.795-4-4-4a3.92 3.92 0 0 0-2.252.699 4.976 4.976 0 0 1-.002 6.601z"/><path fill="#7D7D7D" d="M9.5 8c0 1.33-.58 2.521-1.5 3.34-.92-.819-1.5-2.01-1.5-3.34S7.08 5.47 8 4.66c.92.81 1.5 2.01 1.5 3.34z" opacity=".7"/><path fill="#7D7D7D" d="M8 12.01l-.332-.297A4.972 4.972 0 0 1 6 8c0-1.427.608-2.781 1.67-3.715L8 3.994l.33.291A4.943 4.943 0 0 1 10 8c0 1.416-.607 2.77-1.668 3.713L8 12.01zm0-6.647a3.97 3.97 0 0 0 0 5.27 3.97 3.97 0 0 0 0-5.27z"/><g fill="#7D7D7D"><path d="M5 14v2H2v-2H0v-3h2V9h3v2h2v3H5z"/><path d="M6 13v-1H4v-2H3v2H1v1h2v2h1v-2h2z"/></g></svg>