<svg xmlns="http://www.w3.org/2000/svg" width="16" height="16"><path fill="#E2E2E2" d="M1 4h7v8H1z"/><path fill="#7D7D7D" d="M4.593 12H1v-2h5v.488c.286-.155.586-.264.904-.264H7V10h1v.719l1-.494V0H0v13h4.18c.1-.342.238-.678.413-1zM1 1h5v1h1V1h1v2H1V1zm0 3h5v1h1V4h1v2H1V4zm0 3h5v1h1V7h1v2H1V7zM10 11h5v1h-5zM6 15h5v1H6zM15 12h1v3h-1zM14 16h1v-1h-3z"/><path fill="#7D7D7D" d="M6 12h3l-2-1H6zM10 12l-1-1v3l1 1zM12 14l-1-2v3l1 1zM5 12h1v3H5z"/><path opacity=".46" fill="#7D7D7D" d="M5 11h2v5H5zM14 11h2v5h-2z"/><path opacity=".36" fill="#7D7D7D" d="M10 12h1v3h-1z"/></svg>