<svg xmlns="http://www.w3.org/2000/svg" width="16" height="16"><path fill="#7D7D7D" d="M16 12h-2v-2h-2v2h-2v2h2v2h2v-2h2z"/><path fill="#7D7D7D" d="M11 11V9h3V1.862A1.861 1.861 0 0 0 12.139 0H1.862A1.862 1.862 0 0 0 0 1.862v9.275C0 12.167.833 14 1.862 14H9v-3h2zm-3 1H6v-2h2v2zm0-5c-.08.221 0 1.622 0 2H6c.004-.619 0-1 0-2s.504-.577 1-1c.256-.251 1-1 1-1V4l-1.062-.531L6 4s.004.609 0 1H4s.487-2.257 1.006-2.725C5.229 2.076 6 2 6 2h1.999s.956.12 1.197.365C9.718 2.891 10 4 10 4v1s-.19.554-.459 1C9.25 6.483 8.08 6.779 8 7z"/></svg>