<svg xmlns="http://www.w3.org/2000/svg" width="16" height="16"><path fill="#666" d="M6.05 8.971a3.299 3.299 0 0 1-1.19-.363C4.945 8.258 5 7.89 5 7.5c0-.388-.055-.755-.139-1.104A3.399 3.399 0 0 1 6.5 6C7.973 6 9 6.791 9 7.5a.94.94 0 0 1-.166.5H9.93c.046-.162.07-.329.07-.5C10 6.119 8.433 5 6.5 5c-.744 0-1.432.168-1.999.452C4.01 4.575 3.166 4 2 4v7c1.166 0 2.009-.576 2.501-1.452A4.496 4.496 0 0 0 6.5 10c.302 0 .59-.035.869-.087L6 9l.05-.029zM11 5a6.1 6.1 0 0 0-1.285.144L11 6c1.717 0 3 .792 3 1.5 0 .693-1.311 1.5-3 1.5s-3-.807-3-1.5c0-.021.012-.043.014-.065l-.929-.447A1.622 1.622 0 0 0 7 7.5C7 8.881 8.791 10 11 10s4-1.119 4-2.5S13.209 5 11 5z"/></svg>