<svg xmlns="http://www.w3.org/2000/svg" width="16" height="16"><g fill="#D1D1D1"><path d="M7 8h5v1H7zM11 7h1v1h-1z"/></g><path fill="#7D7D7D" d="M6 6c0 .448.476 1.639 1 2.816V7h5v2H7.083c.155.346.312.684.46 1H13V6H6z"/><g fill="#7D7D7D"><path d="M8.449 12.666H7.056v-.696H6.011l-.001-.698h-.906L3.571 9.879c-.231.07-.723.139-.978.139A2.508 2.508 0 1 1 2.594 5a2.508 2.508 0 0 1 2.401 3.238l3.454 3.455v.973zm-6.86-5.198a.899.899 0 1 0 1.797 0 .899.899 0 0 0-1.797 0z"/><path d="M5 9h1v1H5z"/><path opacity=".3" d="M6 10h1v1H6zM7 11h1v1H7z"/><path d="M8 12h1v1H8z"/></g></svg>