<svg xmlns="http://www.w3.org/2000/svg" width="16" height="16"><path fill="#7D7D7D" d="M5.526 9c.128-.351.288-.685.478-1H5V6h3v.005a5.796 5.796 0 0 1 3-.838c.703 0 1.375.131 2 .359V0H0v12h5.259a5.775 5.775 0 0 1-.092-1H5V9h.526zM8 5H5V3h3v2zm4 0H9V3h3v2zm-8 6H1V9h3v2zm0-3H1V6h3v2zm0-3H1V3h3v2zM1 2V1h11v1H1zm14.899 10a4.995 4.995 0 0 0 0-2h-2.04a2.718 2.718 0 0 0-.129-.316l1.438-1.438a4.973 4.973 0 0 0-1.414-1.414L12.316 8.27A2.718 2.718 0 0 0 12 8.141v-2.04a4.988 4.988 0 0 0-2 0v2.04a2.718 2.718 0 0 0-.316.129L8.246 6.832a5.015 5.015 0 0 0-1.415 1.414l1.438 1.438A3.12 3.12 0 0 0 8.14 10H6.1a5.077 5.077 0 0 0 .001 2h2.04c.038.109.08.215.129.316l-1.438 1.438a5.024 5.024 0 0 0 1.414 1.414l1.438-1.438c.104.05.209.092.316.129v2.04a5.003 5.003 0 0 0 2 0v-2.04c.109-.038.215-.08.316-.129l1.438 1.438a5.011 5.011 0 0 0 1.414-1.414l-1.438-1.438a2.99 2.99 0 0 0 .129-.316h2.04zM11 12.725a1.724 1.724 0 1 1 0-3.45 1.724 1.724 0 1 1 0 3.45z"/></svg>