<svg xmlns="http://www.w3.org/2000/svg" width="16" height="16"><path fill="#E2E2E2" d="M1 2.25h11V5H1z"/><path fill="#7D7D7D" d="M9 13V8h.436c.199-.309.473-.69.777-1H9V5h3v1.076c.344-.061.682.174 1 .174V2H0v12h11.625L11 13H9zM1 3h11v1H1V3zm3 10H1v-2h3v2zm0-3H1V8h3v2zm0-3H1V5h3v2zm4 6H5v-2h3v2zm0-3H5V8h3v2zm0-3H5V5h3v2z"/><path fill="#7D7D7D" d="M15.217 7.693C14.695 7.166 13.979 7 13.067 7c-.843 0-1.524.137-2.044.604C10.504 8.071 9.986 9.103 10 10h2c.004-.392 0-1 0-1s.826-.531 1.067-.531c.314 0 .558.123.728.369.172.246.257.579.257.998 0 .392.099.86-.052 1.164-.15.303-1 0-1 0l-1 1s.004.38 0 1h2c0-.378 1.92-1.778 2-2 .08-.221 0-.602 0-1.171 0-.897-.262-1.61-.783-2.136zM12.079 16H14v-2h-2l.079 2z"/></svg>