<svg xmlns="http://www.w3.org/2000/svg" width="24" height="24"><g fill="#FFF"><path d="M10.542 4.943c2.886-.394 5.609.807 6.293 1.833l.189.199L14 10h8V2l-3.002 3.002c-1.574-2.06-5.367-3.297-8.828-2.834-2.359.315-6.6 1.696-8.498 7.39l2.656.885c1.346-4.039 4.122-5.22 6.214-5.5zM19.672 13.558c-1.346 4.038-4.122 5.22-6.214 5.499-2.183.298-4.271-.316-5.455-1.077-.185-.118-.619-.526-1.038-.944L10 14H2v8l3.01-3.01c1.35 1.77 4.328 2.939 7.338 2.939.496 0 .991-.032 1.481-.098 2.359-.315 6.6-1.696 8.498-7.39l-2.655-.883z"/></g></svg>