<svg xmlns="http://www.w3.org/2000/svg" width="16" height="16"><path fill="#BCBCBC" d="M1 13.5a.5.5 0 0 1-.5-.5V1A.5.5 0 0 1 1 .5h12c.275 0 .5.225.5.5v12c0 .275-.225.5-.5.5H1z"/><path fill="#DDD" d="M2.5 13.5v-7H13l-1.5 7zM3.5.5h7v4h-7z"/><path fill="#7D7D7D" d="M10 1v3H4V1h6m1-1H3v5h8V0z"/><path fill="#7D7D7D" d="M7 1h2v2H7z"/><path opacity=".69" fill="#DDD" d="M7 10h9v4H7z"/><path fill="#BCBCBC" d="M4 8h6v1H4zM4 10h6v1H4z"/><g fill="#7D7D7D"><path d="M1 13V1h12v4l1 3V1c0-.55-.45-1-1-1H1C.45 0 0 .45 0 1v12c0 .55.45 1 1 1h5v-1H1zM9 13.972L6 14h3z"/><path d="M9 13.972L6 14h3zM3 13V7h5l2-1H2v8h4v-1zM10 7h3v9h-3z"/><path d="M7 10h9v3H7z"/></g></svg>