<svg xmlns="http://www.w3.org/2000/svg" width="16" height="16"><g fill="#7D7D7D"><path d="M11 1v10H1V1h10m1-1H0v12h12V0z"/><path d="M1 2h10v1H1z"/><path opacity=".44" d="M5 3h1v9H5z"/><path opacity=".44" d="M1 5h11v1H1zM1 8h11v1H1z"/></g><path fill="#7D7D7D" d="M13 2h1v12h-1z"/><path fill="#7D7D7D" d="M2 13h12v1H2z"/><path opacity=".75" fill="#7D7D7D" d="M4 15h12v1H4z"/><path opacity=".4" fill="#7D7D7D" d="M2 12h1v1H2zM7 12h1v1H7zM12 10h1v1h-1zM12 7h1v1h-1zM12 4h1v1h-1z"/><path opacity=".65" fill="#7D7D7D" d="M12 2h1v1h-1z"/><path opacity=".4" fill="#7D7D7D" d="M14 4h1v1h-1zM4 14h1v1H4zM9 14h1v1H9z"/><path opacity=".75" fill="#7D7D7D" d="M15 4.375h1v11.25h-1z"/><path fill="#E2E2E2" d="M1 1h10v1H1z"/></svg>