<svg xmlns="http://www.w3.org/2000/svg" viewBox="0 0 47 5"><style>.st1{fill:#c6c6c6}</style><path d="M45.5 2.5c0 1.9-1 2-1.1 2H2.6c-.1 0-1.1-.1-1.1-2s1-2 1.1-2h41.8c.1 0 1.1.1 1.1 2z" fill="#ededed"/><path class="st1" d="M2 2.5c0-1.1.3-1.5.6-1.5h41.8c.3 0 .6.4.6 1.5S44.7 4 44.4 4H2.6C2.3 4 2 3.6 2 2.5m-1 0C1 5 2.6 5 2.6 5h41.8S46 5 46 2.5 44.4 0 44.4 0H2.6S1 0 1 2.5z"/><path class="st1" d="M17 2h2v1h-2zM22 2h2v1h-2zM27 2h2v1h-2z"/><path class="st1" d="M18 2h1v1h-1zM23 2h1v1h-1zM28 2h1v1h-1z"/></svg>