<svg xmlns="http://www.w3.org/2000/svg" width="5" height="47"><path fill="#EDEDED" d="M2.5 45.5c-1.901 0-1.996-.978-2-1.089V2.579C.504 2.477.599 1.5 2.5 1.5s1.996.977 2 1.088v41.833c-.004.101-.099 1.079-2 1.079z"/><path fill="#C6C6C6" d="M2.5 2c1.059 0 1.47.336 1.5.579l.001 41.797C3.97 44.664 3.559 45 2.5 45c-1.058 0-1.47-.336-1.5-.579L.999 2.624C1.03 2.336 1.442 2 2.5 2m0-1C0 1 0 2.579 0 2.579v41.842S0 46 2.5 46 5 44.421 5 44.421V2.579S5 1 2.5 1z"/><path fill="#C6C6C6" d="M2 17h1v2H2zM2 22h1v2H2zM2 27h1v2H2z"/><path fill="#C6C6C6" d="M2 18h1v1H2zM2 23h1v1H2zM2 28h1v1H2z"/></svg>