<svg xmlns="http://www.w3.org/2000/svg" width="16" height="16"><g stroke="#7D7D7D"><path fill="none" d="M6.5 8c0 1.33.58 2.521 1.5 3.34-.79.73-1.85 1.16-3 1.16a4.501 4.501 0 0 1 0-9c1.15 0 2.21.43 3 1.16-.92.81-1.5 2.01-1.5 3.34z"/><path fill="#7D7D7D" fill-opacity=".7" d="M15.5 8c0 2.479-2.01 4.5-4.5 4.5-1.15 0-2.21-.43-3-1.16.92-.819 1.5-2.01 1.5-3.34S8.92 5.47 8 4.66c.79-.73 1.85-1.16 3-1.16 2.49 0 4.5 2.01 4.5 4.5z"/><path fill="#7D7D7D" fill-opacity=".7" d="M9.5 8c0 1.33-.58 2.521-1.5 3.34-.92-.819-1.5-2.01-1.5-3.34S7.08 5.47 8 4.66c.92.81 1.5 2.01 1.5 3.34z"/></g><g fill="#7D7D7D"><path d="M5 14v2H2v-2H0v-3h2V9h3v2h2v3H5z"/><path d="M6 13v-1H4v-2H3v2H1v1h2v2h1v-2h2z"/></g></svg>