<svg xmlns="http://www.w3.org/2000/svg" width="16" height="16"><path fill="#E2E2E2" d="M1 .953h12v1.094H1z"/><path fill="#7D7D7D" d="M4 10v1H1V9h3v1c0-1.226.369-2.364 1-3.314V6h.537c.34-.379.724-.717 1.149-1H5V3h3v1.349c.322-.114.656-.2 1-.259V3h3v1.349c.35.124.684.277 1 .46V0H0v12h4.349A5.97 5.97 0 0 1 4 10zM1 1h11v1H1V1zm0 2h3v2H1V3zm0 3h3v2H1V6z"/><g fill="#7D7D7D"><path d="M15 14v-1h-1v-1h-1v1h-1v1h1v1h1v1h2v-2z"/><path d="M10 14c-2.206 0-4-1.795-4-4s1.794-4 4-4c2.205 0 4 1.795 4 4 0 .521-.107 1.017-.289 1.474l.846.564c.28-.624.443-1.31.443-2.038a5 5 0 1 0-10 0 5 5 0 0 0 5 5c.728 0 1.414-.163 2.038-.442l-.564-.847A3.974 3.974 0 0 1 10 14z"/></g></svg>